<svg width="34" height="34" viewBox="0 0 34 34" fill="none" xmlns="http://www.w3.org/2000/svg">
<path d="M3.85236 14.7956C3.85236 12.2232 5.99187 10.1378 8.63109 10.1378H25.3689C28.0081 10.1378 30.1476 12.2232 30.1476 14.7956V29.3422C30.1476 31.9146 28.0081 34 25.3689 34H8.63109C5.99187 34 3.85236 31.9146 3.85236 29.3422V14.7956Z" fill="#525252"/>
<path d="M15.8515 0.373799C16.5318 -0.1246 17.4682 -0.124599 18.1485 0.3738L33.2333 11.4253C34.7009 12.5004 33.9207 14.7777 32.0848 14.7777H1.9152C0.0792525 14.7777 -0.700901 12.5004 0.766699 11.4252L15.8515 0.373799Z" fill="#525252"/>
<rect x="12.5" y="17.5" width="9.00003" height="9.13778" fill="#525252" stroke="#D1B200" stroke-width="3" stroke-linejoin="round"/>
</svg>
