<svg width="30" height="31" viewBox="0 0 30 31" fill="none" xmlns="http://www.w3.org/2000/svg">
<path d="M15 0C23.2863 0 30 6.9375 30 15.5C30 24.0625 23.2863 31 15 31C6.71371 31 0 24.0625 0 15.5C0 6.9375 6.71371 0 15 0ZM15 6C12.0605 6 9.67742 8.4625 9.67742 11.5C9.67742 14.5375 12.0605 17 15 17C17.9395 17 20.3226 14.5375 20.3226 11.5C20.3226 8.4625 17.9395 6 15 6ZM15 27.5C18.5504 27.5 21.7319 25.8375 23.8609 23.2375C22.7238 21.025 20.498 19.5 17.9032 19.5C17.7581 19.5 17.6129 19.525 17.4738 19.5688C16.6875 19.8313 15.8649 20 15 20C14.1351 20 13.3065 19.8313 12.5262 19.5688C12.3871 19.525 12.2419 19.5 12.0968 19.5C9.50202 19.5 7.27621 21.025 6.13911 23.2375C8.26815 25.8375 11.4496 27.5 15 27.5Z" fill="#C4C4C4"/>
</svg>
